<?xml version="1.0" standalone="no"?>
<!DOCTYPE svg PUBLIC "-//W3C//DTD SVG 20010904//EN"
 "http://www.w3.org/TR/2001/REC-SVG-20010904/DTD/svg10.dtd">
<svg version="1.0" xmlns="http://www.w3.org/2000/svg"
 width="16.000000pt" height="16.000000pt" viewBox="0 0 16.000000 16.000000"
 preserveAspectRatio="xMidYMid meet">
<metadata>
Created by potrace 1.11, written by Peter Selinger 2001-2013
</metadata>
<g transform="translate(0.000000,16.000000) scale(0.005333,-0.005333)"
fill="#000000" stroke="none">
<path d="M110 1480 l0 -1370 165 0 165 0 0 575 0 576 233 -3 c226 -3 233 -2
285 21 70 32 118 89 143 171 19 63 20 90 17 611 l-3 544 -29 63 c-32 70 -86
124 -155 156 -44 20 -62 21 -433 24 l-388 3 0 -1371z m596 994 c16 -11 32 -36
37 -55 5 -18 7 -187 5 -374 -5 -449 0 -438 -185 -444 l-113 -3 0 452 0 452
114 -3 c97 -4 119 -7 142 -25z"/>
<path d="M1332 2835 c-68 -7 -126 -16 -130 -20 -3 -3 74 -613 173 -1356 l180
-1349 166 0 c165 0 167 0 172 22 3 13 43 294 88 626 l84 603 82 -613 c45 -337
82 -619 83 -625 0 -10 41 -13 170 -13 94 0 170 4 170 8 0 5 83 607 185 1338
102 731 185 1341 185 1357 l0 27 -193 0 -192 0 -75 -597 -76 -597 -72 575
c-40 316 -73 584 -72 597 l0 22 -190 0 -189 0 -6 -32 c-3 -18 -34 -267 -70
-553 -36 -286 -68 -536 -71 -555 -5 -24 -30 148 -80 535 -40 314 -73 580 -73
593 -1 21 -5 22 -63 21 -35 -1 -118 -7 -186 -14z"/>
</g>
</svg>
